<?xml version="1.0" encoding="UTF-8" standalone="no"?>
<svg xmlns="http://www.w3.org/2000/svg" width="171.84131mm" height="43.642704mm" viewBox="0 0 171.84131 43.642704">
  <path fill="#676c73" d="M64.20366 42.60118c-3.59362-.41659-6.49823-1.7441-8.83262-4.03681-2.88613-2.83462-4.41771-6.65563-4.41771-11.02137 0-8.77582 6.31781-15.21089 14.91916-15.19601 2.26875.004 4.52963.53349 6.52709 1.52886.95275.47478 2.17056 1.28578 2.81463 1.87443.24375.22278.46642.40505.49482.40505.0284 0 .0516-.74295.0516-1.651v-1.651h3.72533v29.37934h-3.72533v-3.4009l-.34052.28228c-2.49675 2.06974-4.77071 3.07826-7.78527 3.45281-.65966.082-2.83274.1037-3.43121.0343zm3.43525-3.88915c4.50312-.75588 7.62473-3.93681 8.51519-8.677.20642-1.09886.21188-3.86378.01-4.94736-.23561-1.26315-.55169-2.23214-1.0771-3.302-1.55051-3.15724-4.28143-5.07169-7.91976-5.55197-1.26109-.16647-3.09969-.06-4.30435.24918-3.51134.9013-6.21879 3.44562-7.44467 6.99612-.50924 1.47491-.61231 2.15899-.61231 4.064 0 1.46519.0266 1.81218.19748 2.57546 1.02 4.55636 4.2892 7.80764 8.64356 8.59616.90358.16362 3.01017.16226 3.99221-.003zm-35.92454 3.7714c-2.49107-.26147-4.79101-1.0698-6.7577-2.37504-1.10009-.7301-2.82022-2.46012-3.57021-3.59072-1.8319-2.76159-2.71056-6.07584-2.58132-9.73667.1175-3.3282 1.04344-6.16975 2.84171-8.72067.26261-.37253.93468-1.13674 1.49348-1.69825 1.99424-2.00389 4.39661-3.273 7.29161-3.85197 1.166-.23318 3.77502-.32142 4.98832-.1687 5.58785.70335 9.7734 4.44559 11.21182 10.02432.3504 1.35899.50774 2.516.56876 4.18244l.0535 1.4605H22.56427l.056.86783c.24881 3.85824 2.48826 7.31598 5.83143 9.00377 1.57962.79747 3.08683 1.14429 4.98226 1.14647 3.24962.004 5.70533-.99926 7.75027-3.16549.51092-.54121 1.66386-2.08933 1.86303-2.50159.0247-.0511 3.24881 2.05961 3.24913 2.12709.001.20482-1.32071 1.96309-2.04896 2.72584-2.69198 2.81954-6.02851 4.20959-10.35438 4.31378-.79164.0191-1.77202-.00026-2.17863-.0429zm11.66136-18.1366c-.70107-4.41414-3.71319-7.61411-7.95873-8.4551-.89385-.17706-3.20465-.15638-4.10634.0367-2.13984.4583-3.92454 1.38475-5.40745 2.80704-1.56967 1.50549-2.61629 3.39644-3.17612 5.73832l-.0556.23284h20.76144zm112.01393 18.13062c-6.48663-.60436-11.30289-4.99963-12.60749-11.50545-.88765-4.42653-.0637-9.04331 2.22274-12.45508 2.19091-3.26917 5.31124-5.29241 9.34878-6.06181 1.14065-.21736 4.53099-.21572 5.60796.003 2.69465.54654 4.9222 1.71971 6.77725 3.56933 2.67474 2.66692 4.10241 6.43754 4.10241 10.8349v1.14605l-12.29783.0215-12.29782.0214.0227.67733c.0896 2.66725 1.35036 5.4565 3.32823 7.36317 1.53406 1.47885 3.39538 2.41566 5.56688 2.80187.9647.17157 3.03794.17129 4.00826-.00053 3.00929-.53293 5.18794-2.01209 7.05246-4.78815.26584-.39582.515-.71117.55367-.70079.10103.0271 2.98496 1.88295 3.10787 1.99994.13054.12426-.66339 1.32166-1.59298 2.4025-2.96643 3.44909-7.68507 5.15731-12.90314 4.67114zm11.64106-18.00362c0-.12806-.0746-.54129-.16494-.9183-1.01788-4.24542-4.01549-7.07282-8.17413-7.70995-1.58488-.24282-3.47609-.0751-5.07999.45054-3.4685 1.1367-6.15108 4.01142-7.07149 7.57799-.0921.35701-.16751.69038-.16751.74083 0 .0654 2.96953.0917 10.32933.0917h10.32932l-.00079-.23284zM1 27.50067v-14.732h17.61066v3.47034l-6.9215.0217-6.9215.0217-.0214 12.97517-.0214 12.97517H1.00007zM86.00533 21.574V1h3.81v41.148h-3.81zm10.32932 5.88433V12.76867h3.72533l.004 1.92616.004 1.92617.31369-.3809c1.03555-1.25738 2.10244-2.14205 3.31045-2.74505 1.44079-.71918 2.7073-1.03441 4.49626-1.11911 2.06384-.0977 3.74311.22202 5.37633 1.02363 1.73366.85091 2.98002 2.0728 4.15521 4.07362.081.13791.12968.0989.43519-.34846 1.60119-2.34475 3.9832-3.89569 6.9666-4.536 1.18294-.25389 3.78271-.27976 4.92843-.049 2.09518.42191 3.74497 1.27344 5.10961 2.63732 1.45298 1.45217 2.34562 3.20099 2.89297 5.6678l.22755 1.02552.0276 10.13884.0276 10.13883h-3.73118v-9.05036c0-5.6423-.0331-9.38054-.088-9.92717-.34875-3.47526-2.14776-5.98742-4.95928-6.92517-1.08399-.36156-2.2495-.48212-3.42661-.35445-3.62693.39338-5.97137 2.35554-6.79036 5.68315-.17369.7057-.17771.9123-.20704 10.64683l-.0299 9.92717h-3.71814v-8.8777c0-5.30641-.0349-9.30727-.0867-9.94554-.34652-4.26735-2.68926-6.97265-6.43263-7.42814-3.41439-.41546-6.95877 1.57882-8.24607 4.63973-.53725 1.27748-.50659.61535-.53724 11.59982l-.028 10.01183h-3.7194V27.45837z"/>
</svg>